<svg width="20" height="22" viewBox="0 0 20 22" fill="none" xmlns="http://www.w3.org/2000/svg">
<path d="M1.80941 8.84C1.84963 8.33881 2.07716 7.87115 2.44668 7.53017C2.81621 7.18918 3.3006 6.9999 3.80341 7H15.8614C16.3642 6.9999 16.8486 7.18918 17.2181 7.53017C17.5877 7.87115 17.8152 8.33881 17.8554 8.84L18.6584 18.84C18.6805 19.1152 18.6454 19.392 18.5552 19.6529C18.4651 19.9139 18.3219 20.1533 18.1347 20.3562C17.9475 20.5592 17.7203 20.7211 17.4674 20.8319C17.2146 20.9427 16.9415 20.9999 16.6654 21H2.99941C2.72333 20.9999 2.45026 20.9427 2.19739 20.8319C1.94452 20.7211 1.71732 20.5592 1.53011 20.3562C1.34289 20.1533 1.19971 19.9139 1.10958 19.6529C1.01945 19.392 0.984324 19.1152 1.00641 18.84L1.80941 8.84V8.84Z" stroke="white" stroke-width="2" stroke-linecap="round" stroke-linejoin="round"/>
<path d="M13.8325 10V5C13.8325 3.93913 13.4111 2.92172 12.6609 2.17157C11.9108 1.42143 10.8934 1 9.83252 1C8.77165 1 7.75424 1.42143 7.00409 2.17157C6.25395 2.92172 5.83252 3.93913 5.83252 5V10" stroke="white" stroke-width="2" stroke-linecap="round" stroke-linejoin="round"/>
</svg>
