<svg width="18" height="18" viewBox="0 0 18 18" fill="none" xmlns="http://www.w3.org/2000/svg">
<path d="M8.90397 5.99867C7.26857 5.99867 5.93397 7.34731 5.93397 8.99992C5.93397 10.6525 7.26857 12.0012 8.90397 12.0012C10.5394 12.0012 11.874 10.6525 11.874 8.99992C11.874 7.34731 10.5394 5.99867 8.90397 5.99867ZM17.8117 8.99992C17.8117 7.75709 17.8229 6.52552 17.7538 5.28494C17.6847 3.84398 17.3594 2.56513 16.3167 1.51143C15.2717 0.455473 14.0084 0.129005 12.5825 0.0592087C11.3526 -0.0105878 10.1339 0.000669696 8.90619 0.000669696C7.67631 0.000669696 6.45756 -0.0105878 5.22991 0.0592087C3.80395 0.129005 2.53842 0.457724 1.49569 1.51143C0.45073 2.56738 0.127662 3.84398 0.0585921 5.28494C-0.0104776 6.52777 0.000662722 7.75934 0.000662722 8.99992C0.000662722 10.2405 -0.0104776 11.4743 0.0585921 12.7149C0.127662 14.1559 0.452958 15.4347 1.49569 16.4884C2.54064 17.5444 3.80395 17.8708 5.22991 17.9406C6.45979 18.0104 7.67854 17.9992 8.90619 17.9992C10.1361 17.9992 11.3548 18.0104 12.5825 17.9406C14.0084 17.8708 15.274 17.5421 16.3167 16.4884C17.3617 15.4325 17.6847 14.1559 17.7538 12.7149C17.8251 11.4743 17.8117 10.2427 17.8117 8.99992ZM8.90397 13.6177C6.37513 13.6177 4.33423 11.5554 4.33423 8.99992C4.33423 6.44446 6.37513 4.38209 8.90397 4.38209C11.4328 4.38209 13.4737 6.44446 13.4737 8.99992C13.4737 11.5554 11.4328 13.6177 8.90397 13.6177ZM13.6609 5.27143C13.0704 5.27143 12.5936 4.78961 12.5936 4.19296C12.5936 3.59632 13.0704 3.11449 13.6609 3.11449C14.2513 3.11449 14.7281 3.59632 14.7281 4.19296C14.7283 4.33464 14.7008 4.47496 14.6472 4.60589C14.5936 4.73681 14.515 4.85577 14.4159 4.95595C14.3168 5.05613 14.199 5.13557 14.0695 5.1897C13.9399 5.24384 13.8011 5.27161 13.6609 5.27143Z" fill="#929292"/>
</svg>
